{
	"asset":{
		"generator":"Khronos glTF Blender I/O v3.6.27",
		"version":"2.0"
	},
	"extensionsUsed":[
		"KHR_materials_specular",
		"KHR_materials_ior"
	],
	"scene":0,
	"scenes":[
		{
			"name":"Scene",
			"nodes":[
				4
			]
		}
	],
	"nodes":[
		{
			"mesh":0,
			"name":"Buttons",
			"rotation":[
				0,
				0,
				-0.7071068286895752,
				0.7071068286895752
			],
			"translation":[
				-0.9649503231048584,
				-0.10132990777492523,
				-0.7100481986999512
			]
		},
		{
			"mesh":1,
			"name":"Cameras",
			"scale":[
				0.13603492081165314,
				0.07000961899757385,
				0.13603492081165314
			],
			"translation":[
				-0.42110610008239746,
				-0.06422353535890579,
				-0.41994524002075195
			]
		},
		{
			"children":[
				1
			],
			"mesh":2,
			"name":"Cam Bump",
			"scale":[
				0.3775366544723511,
				0.3775366544723511,
				0.3775366544723511
			],
			"translation":[
				-0.496515691280365,
				0.024416789412498474,
				-1.5769867897033691
			]
		},
		{
			"mesh":3,
			"name":"Front Camera",
			"scale":[
				0.019151536747813225,
				0.009341373108327389,
				0.019151536747813225
			],
			"translation":[
				0.24919342994689941,
				-0.1881350874900818,
				-1.9531313180923462
			]
		},
		{
			"children":[
				0,
				2,
				3
			],
			"mesh":4,
			"name":"Body",
			"rotation":[
				0.7071068286895752,
				0,
				0,
				0.7071068286895752
			]
		}
	],
	"materials":[
		{
			"doubleSided":true,
			"name":"Body",
			"pbrMetallicRoughness":{
				"baseColorFactor":[
					0.07421362400054932,
					0.10461651533842087,
					0.06847819685935974,
					1
				],
				"metallicFactor":0.5,
				"roughnessFactor":0.4000000059604645
			}
		},
		{
			"doubleSided":true,
			"extensions":{
				"KHR_materials_specular":{
					"specularColorFactor":[
						2.371357614441398,
						2.371357614441398,
						2.371357614441398
					]
				},
				"KHR_materials_ior":{
					"ior":1.4500000476837158
				}
			},
			"name":"Material.006",
			"pbrMetallicRoughness":{
				"baseColorFactor":[
					0.800000011920929,
					0.800000011920929,
					0.800000011920929,
					1
				],
				"roughnessFactor":0.10000000149011612
			}
		},
		{
			"doubleSided":true,
			"name":"Material.001",
			"pbrMetallicRoughness":{
				"baseColorFactor":[
					0,
					0,
					0,
					1
				]
			}
		},
		{
			"doubleSided":true,
			"name":"Glass",
			"pbrMetallicRoughness":{}
		},
		{
			"doubleSided":true,
			"name":"Material.005",
			"pbrMetallicRoughness":{
				"baseColorFactor":[
					0.0908377543091774,
					0.0908377543091774,
					0.0908377543091774,
					1
				]
			}
		},
		{
			"doubleSided":true,
			"name":"Back Glass",
			"pbrMetallicRoughness":{
				"baseColorFactor":[
					0.038204364478588104,
					0.06847819685935974,
					0.0382043793797493,
					1
				],
				"metallicFactor":0.5,
				"roughnessFactor":0
			}
		},
		{
			"doubleSided":true,
			"name":"Material.007",
			"pbrMetallicRoughness":{
				"baseColorFactor":[
					0.8000000715255737,
					0.7682636976242065,
					0.37349873781204224,
					1
				],
				"roughnessFactor":0
			}
		},
		{
			"doubleSided":true,
			"name":"Material",
			"pbrMetallicRoughness":{
				"baseColorFactor":[
					0.800000011920929,
					0.800000011920929,
					0.800000011920929,
					1
				],
				"roughnessFactor":0.20000000298023224
			}
		},
		{
			"doubleSided":true,
			"name":"Material.002",
			"pbrMetallicRoughness":{
				"baseColorFactor":[
					0.029556844383478165,
					0.048171836882829666,
					0.02955685183405876,
					1
				],
				"metallicFactor":0.5,
				"roughnessFactor":0.20000000298023224
			}
		},
		{
			"doubleSided":true,
			"name":"Material.003",
			"pbrMetallicRoughness":{
				"baseColorFactor":[
					0,
					0,
					0,
					1
				],
				"metallicFactor":0.5,
				"roughnessFactor":0
			}
		},
		{
			"doubleSided":true,
			"name":"Material.004",
			"pbrMetallicRoughness":{
				"baseColorTexture":{
					"index":0
				},
				"metallicFactor":0.30000001192092896,
				"roughnessFactor":0
			}
		}
	],
	"meshes":[
		{
			"name":"Plane.002",
			"primitives":[
				{
					"attributes":{
						"POSITION":0,
						"NORMAL":1,
						"TEXCOORD_0":2
					},
					"indices":3,
					"material":0
				}
			]
		},
		{
			"name":"Icosphere.001",
			"primitives":[
				{
					"attributes":{
						"POSITION":4,
						"NORMAL":5,
						"TEXCOORD_0":6
					},
					"indices":7,
					"material":1
				},
				{
					"attributes":{
						"POSITION":8,
						"NORMAL":9,
						"TEXCOORD_0":10
					},
					"indices":11,
					"material":0
				},
				{
					"attributes":{
						"POSITION":12,
						"NORMAL":13,
						"TEXCOORD_0":14
					},
					"indices":15,
					"material":2
				},
				{
					"attributes":{
						"POSITION":16,
						"NORMAL":17,
						"TEXCOORD_0":18
					},
					"indices":19,
					"material":3
				},
				{
					"attributes":{
						"POSITION":20,
						"NORMAL":21,
						"TEXCOORD_0":22
					},
					"indices":23,
					"material":4
				}
			]
		},
		{
			"name":"Plane.011",
			"primitives":[
				{
					"attributes":{
						"POSITION":24,
						"NORMAL":25,
						"TEXCOORD_0":26
					},
					"indices":27,
					"material":5
				},
				{
					"attributes":{
						"POSITION":28,
						"NORMAL":29,
						"TEXCOORD_0":30
					},
					"indices":31,
					"material":0
				},
				{
					"attributes":{
						"POSITION":32,
						"NORMAL":33,
						"TEXCOORD_0":34
					},
					"indices":35,
					"material":2
				},
				{
					"attributes":{
						"POSITION":36,
						"NORMAL":37,
						"TEXCOORD_0":38
					},
					"indices":39,
					"material":6
				}
			]
		},
		{
			"name":"Icosphere",
			"primitives":[
				{
					"attributes":{
						"POSITION":40,
						"NORMAL":41,
						"TEXCOORD_0":42
					},
					"indices":43,
					"material":1
				},
				{
					"attributes":{
						"POSITION":44,
						"NORMAL":45,
						"TEXCOORD_0":46
					},
					"indices":47,
					"material":4
				}
			]
		},
		{
			"name":"Plane",
			"primitives":[
				{
					"attributes":{
						"POSITION":48,
						"NORMAL":49,
						"TEXCOORD_0":50
					},
					"indices":51,
					"material":0
				},
				{
					"attributes":{
						"POSITION":52,
						"NORMAL":53,
						"TEXCOORD_0":54
					},
					"indices":55,
					"material":5
				},
				{
					"attributes":{
						"POSITION":56,
						"NORMAL":57,
						"TEXCOORD_0":58
					},
					"indices":59,
					"material":7
				},
				{
					"attributes":{
						"POSITION":60,
						"NORMAL":61,
						"TEXCOORD_0":62
					},
					"indices":63,
					"material":2
				},
				{
					"attributes":{
						"POSITION":64,
						"NORMAL":65,
						"TEXCOORD_0":66
					},
					"indices":67,
					"material":8
				},
				{
					"attributes":{
						"POSITION":68,
						"NORMAL":69,
						"TEXCOORD_0":70
					},
					"indices":71,
					"material":9
				},
				{
					"attributes":{
						"POSITION":72,
						"NORMAL":73,
						"TEXCOORD_0":74
					},
					"indices":75,
					"material":10
				},
				{
					"attributes":{
						"POSITION":76,
						"NORMAL":77,
						"TEXCOORD_0":78
					},
					"indices":79,
					"material":3
				}
			]
		}
	],
	"textures":[
		{
			"sampler":0,
			"source":0
		}
	],
	"images":[
		{
			"bufferView":76,
			"mimeType":"image/png",
			"name":"14 pro max screen"
		}
	],
	"accessors":[
		{
			"bufferView":0,
			"componentType":5126,
			"count":1040,
			"max":[
				0.03477301076054573,
				1.9783906936645508,
				0.33561593294143677
			],
			"min":[
				-0.03832215443253517,
				-0.05000000074505806,
				-0.6042714715003967
			],
			"type":"VEC3"
		},
		{
			"bufferView":1,
			"componentType":5126,
			"count":1040,
			"type":"VEC3"
		},
		{
			"bufferView":2,
			"componentType":5126,
			"count":1040,
			"type":"VEC2"
		},
		{
			"bufferView":3,
			"componentType":5123,
			"count":2064,
			"type":"SCALAR"
		},
		{
			"bufferView":4,
			"componentType":5126,
			"count":1458,
			"max":[
				6.9582600593566895,
				1,
				7.0418701171875
			],
			"min":[
				-0.9999999403953552,
				-1,
				-0.9999999403953552
			],
			"type":"VEC3"
		},
		{
			"bufferView":5,
			"componentType":5126,
			"count":1458,
			"type":"VEC3"
		},
		{
			"bufferView":6,
			"componentType":5126,
			"count":1458,
			"type":"VEC2"
		},
		{
			"bufferView":7,
			"componentType":5123,
			"count":7680,
			"type":"SCALAR"
		},
		{
			"bufferView":8,
			"componentType":5126,
			"count":3786,
			"max":[
				9.79564380645752,
				1.4081926345825195,
				9.879039764404297
			],
			"min":[
				-3.577028512954712,
				-0.07479411363601685,
				-3.543163537979126
			],
			"type":"VEC3"
		},
		{
			"bufferView":9,
			"componentType":5126,
			"count":3786,
			"type":"VEC3"
		},
		{
			"bufferView":10,
			"componentType":5126,
			"count":3786,
			"type":"VEC2"
		},
		{
			"bufferView":11,
			"componentType":5123,
			"count":14592,
			"type":"SCALAR"
		},
		{
			"bufferView":12,
			"componentType":5126,
			"count":3096,
			"max":[
				9.38443374633789,
				1.6726677417755127,
				9.467830657958984
			],
			"min":[
				-3.165818691253662,
				-0.07479411363601685,
				-3.131953716278076
			],
			"type":"VEC3"
		},
		{
			"bufferView":13,
			"componentType":5126,
			"count":3096,
			"type":"VEC3"
		},
		{
			"bufferView":14,
			"componentType":5126,
			"count":3096,
			"type":"VEC2"
		},
		{
			"bufferView":15,
			"componentType":5123,
			"count":16146,
			"type":"SCALAR"
		},
		{
			"bufferView":16,
			"componentType":5126,
			"count":384,
			"max":[
				9.061814308166504,
				1.671462059020996,
				9.162473678588867
			],
			"min":[
				-2.8421378135681152,
				1.6008491516113281,
				-2.823340892791748
			],
			"type":"VEC3"
		},
		{
			"bufferView":17,
			"componentType":5126,
			"count":384,
			"type":"VEC3"
		},
		{
			"bufferView":18,
			"componentType":5126,
			"count":384,
			"type":"VEC2"
		},
		{
			"bufferView":19,
			"componentType":5123,
			"count":744,
			"type":"SCALAR"
		},
		{
			"bufferView":20,
			"componentType":5126,
			"count":128,
			"max":[
				9.054104804992676,
				1.4784770011901855,
				9.144006729125977
			],
			"min":[
				-2.8372485637664795,
				0.06772220134735107,
				-2.811713933944702
			],
			"type":"VEC3"
		},
		{
			"bufferView":21,
			"componentType":5126,
			"count":128,
			"type":"VEC3"
		},
		{
			"bufferView":22,
			"componentType":5126,
			"count":128,
			"type":"VEC2"
		},
		{
			"bufferView":23,
			"componentType":5123,
			"count":384,
			"type":"SCALAR"
		},
		{
			"bufferView":24,
			"componentType":5126,
			"count":2147,
			"max":[
				1.1177482604980469,
				0,
				1.1177469491958618
			],
			"min":[
				-1.1177492141723633,
				-0.0700000673532486,
				-1.1177505254745483
			],
			"type":"VEC3"
		},
		{
			"bufferView":25,
			"componentType":5126,
			"count":2147,
			"type":"VEC3"
		},
		{
			"bufferView":26,
			"componentType":5126,
			"count":2147,
			"type":"VEC2"
		},
		{
			"bufferView":27,
			"componentType":5123,
			"count":7341,
			"type":"SCALAR"
		},
		{
			"bufferView":28,
			"componentType":5126,
			"count":933,
			"max":[
				0.9999995231628418,
				0,
				0.9999980926513672
			],
			"min":[
				-1.0000004768371582,
				-0.015297058038413525,
				-1.0000019073486328
			],
			"type":"VEC3"
		},
		{
			"bufferView":29,
			"componentType":5126,
			"count":933,
			"type":"VEC3"
		},
		{
			"bufferView":30,
			"componentType":5126,
			"count":933,
			"type":"VEC2"
		},
		{
			"bufferView":31,
			"componentType":5123,
			"count":4383,
			"type":"SCALAR"
		},
		{
			"bufferView":32,
			"componentType":5126,
			"count":235,
			"max":[
				0.911443293094635,
				0,
				0.9239482879638672
			],
			"min":[
				-0.9077069759368896,
				-0.0700000673532486,
				-0.901939868927002
			],
			"type":"VEC3"
		},
		{
			"bufferView":33,
			"componentType":5126,
			"count":235,
			"type":"VEC3"
		},
		{
			"bufferView":34,
			"componentType":5126,
			"count":235,
			"type":"VEC2"
		},
		{
			"bufferView":35,
			"componentType":5123,
			"count":486,
			"type":"SCALAR"
		},
		{
			"bufferView":36,
			"componentType":5126,
			"count":736,
			"max":[
				0.7675194144248962,
				-0.012538352981209755,
				-0.3233238458633423
			],
			"min":[
				0.3376557230949402,
				-0.019644364714622498,
				-0.7531875371932983
			],
			"type":"VEC3"
		},
		{
			"bufferView":37,
			"componentType":5126,
			"count":736,
			"type":"VEC3"
		},
		{
			"bufferView":38,
			"componentType":5126,
			"count":736,
			"type":"VEC2"
		},
		{
			"bufferView":39,
			"componentType":5123,
			"count":3546,
			"type":"SCALAR"
		},
		{
			"bufferView":40,
			"componentType":5126,
			"count":729,
			"max":[
				1,
				1,
				0.9999999403953552
			],
			"min":[
				-0.9999999403953552,
				-1,
				-0.9999999403953552
			],
			"type":"VEC3"
		},
		{
			"bufferView":41,
			"componentType":5126,
			"count":729,
			"type":"VEC3"
		},
		{
			"bufferView":42,
			"componentType":5126,
			"count":729,
			"type":"VEC2"
		},
		{
			"bufferView":43,
			"componentType":5123,
			"count":3840,
			"type":"SCALAR"
		},
		{
			"bufferView":44,
			"componentType":5126,
			"count":64,
			"max":[
				1.3286076784133911,
				-0.27522891759872437,
				1.4067497253417969
			],
			"min":[
				-1.453048825263977,
				-1.0004844665527344,
				-1.3748893737792969
			],
			"type":"VEC3"
		},
		{
			"bufferView":45,
			"componentType":5126,
			"count":64,
			"type":"VEC3"
		},
		{
			"bufferView":46,
			"componentType":5126,
			"count":64,
			"type":"VEC2"
		},
		{
			"bufferView":47,
			"componentType":5123,
			"count":192,
			"type":"SCALAR"
		},
		{
			"bufferView":48,
			"componentType":5126,
			"count":6753,
			"max":[
				1.0074946880340576,
				0,
				2.074227809906006
			],
			"min":[
				-1.0074946880340576,
				-0.20101672410964966,
				-2.074227809906006
			],
			"type":"VEC3"
		},
		{
			"bufferView":49,
			"componentType":5126,
			"count":6753,
			"type":"VEC3"
		},
		{
			"bufferView":50,
			"componentType":5126,
			"count":6753,
			"type":"VEC2"
		},
		{
			"bufferView":51,
			"componentType":5123,
			"count":25647,
			"type":"SCALAR"
		},
		{
			"bufferView":52,
			"componentType":5126,
			"count":138,
			"max":[
				0.984907329082489,
				0,
				2.051640510559082
			],
			"min":[
				-0.984907329082489,
				0,
				-2.051640510559082
			],
			"type":"VEC3"
		},
		{
			"bufferView":53,
			"componentType":5126,
			"count":138,
			"type":"VEC3"
		},
		{
			"bufferView":54,
			"componentType":5126,
			"count":138,
			"type":"VEC2"
		},
		{
			"bufferView":55,
			"componentType":5123,
			"count":408,
			"type":"SCALAR"
		},
		{
			"bufferView":56,
			"componentType":5126,
			"count":926,
			"max":[
				0.2069462090730667,
				-0.07946321368217468,
				2.0734870433807373
			],
			"min":[
				-0.20684073865413666,
				-0.1258196383714676,
				2.07059383392334
			],
			"type":"VEC3"
		},
		{
			"bufferView":57,
			"componentType":5126,
			"count":926,
			"type":"VEC3"
		},
		{
			"bufferView":58,
			"componentType":5126,
			"count":926,
			"type":"VEC2"
		},
		{
			"bufferView":59,
			"componentType":5123,
			"count":2868,
			"type":"SCALAR"
		},
		{
			"bufferView":60,
			"componentType":5126,
			"count":1788,
			"max":[
				0.5168769359588623,
				-0.07000020146369934,
				2.074227809906006
			],
			"min":[
				-0.6287151575088501,
				-0.20101672410964966,
				-2.046621084213257
			],
			"type":"VEC3"
		},
		{
			"bufferView":61,
			"componentType":5126,
			"count":1788,
			"type":"VEC3"
		},
		{
			"bufferView":62,
			"componentType":5126,
			"count":1788,
			"type":"VEC2"
		},
		{
			"bufferView":63,
			"componentType":5123,
			"count":4221,
			"type":"SCALAR"
		},
		{
			"bufferView":64,
			"componentType":5126,
			"count":919,
			"max":[
				1.0074946880340576,
				0,
				2.074227809906006
			],
			"min":[
				-1.0074946880340576,
				-0.20101672410964966,
				-2.074227809906006
			],
			"type":"VEC3"
		},
		{
			"bufferView":65,
			"componentType":5126,
			"count":919,
			"type":"VEC3"
		},
		{
			"bufferView":66,
			"componentType":5126,
			"count":919,
			"type":"VEC2"
		},
		{
			"bufferView":67,
			"componentType":5123,
			"count":3240,
			"type":"SCALAR"
		},
		{
			"bufferView":68,
			"componentType":5126,
			"count":701,
			"max":[
				0.9853070378303528,
				-0.18972378969192505,
				2.0520403385162354
			],
			"min":[
				-0.9853070378303528,
				-0.20101672410964966,
				-2.0520403385162354
			],
			"type":"VEC3"
		},
		{
			"bufferView":69,
			"componentType":5126,
			"count":701,
			"type":"VEC3"
		},
		{
			"bufferView":70,
			"componentType":5126,
			"count":701,
			"type":"VEC2"
		},
		{
			"bufferView":71,
			"componentType":5123,
			"count":2028,
			"type":"SCALAR"
		},
		{
			"bufferView":72,
			"componentType":5126,
			"count":88,
			"max":[
				0.9272415041923523,
				-0.2009802758693695,
				2.001310348510742
			],
			"min":[
				-0.9272415041923523,
				-0.2009802758693695,
				-1.9983521699905396
			],
			"type":"VEC3"
		},
		{
			"bufferView":73,
			"componentType":5126,
			"count":88,
			"type":"VEC3"
		},
		{
			"bufferView":74,
			"componentType":5126,
			"count":88,
			"type":"VEC2"
		},
		{
			"bufferView":75,
			"componentType":5123,
			"count":258,
			"type":"SCALAR"
		},
		{
			"bufferView":77,
			"componentType":5126,
			"count":32,
			"max":[
				0.2747592628002167,
				-0.20101672410964966,
				-1.9262142181396484
			],
			"min":[
				0.22148627042770386,
				-0.20101672410964966,
				-1.9794871807098389
			],
			"type":"VEC3"
		},
		{
			"bufferView":78,
			"componentType":5126,
			"count":32,
			"type":"VEC3"
		},
		{
			"bufferView":79,
			"componentType":5126,
			"count":32,
			"type":"VEC2"
		},
		{
			"bufferView":80,
			"componentType":5123,
			"count":90,
			"type":"SCALAR"
		}
	],
	"bufferViews":[
		{
			"buffer":0,
			"byteLength":12480,
			"byteOffset":0,
			"target":34962
		},
		{
			"buffer":0,
			"byteLength":12480,
			"byteOffset":12480,
			"target":34962
		},
		{
			"buffer":0,
			"byteLength":8320,
			"byteOffset":24960,
			"target":34962
		},
		{
			"buffer":0,
			"byteLength":4128,
			"byteOffset":33280,
			"target":34963
		},
		{
			"buffer":0,
			"byteLength":17496,
			"byteOffset":37408,
			"target":34962
		},
		{
			"buffer":0,
			"byteLength":17496,
			"byteOffset":54904,
			"target":34962
		},
		{
			"buffer":0,
			"byteLength":11664,
			"byteOffset":72400,
			"target":34962
		},
		{
			"buffer":0,
			"byteLength":15360,
			"byteOffset":84064,
			"target":34963
		},
		{
			"buffer":0,
			"byteLength":45432,
			"byteOffset":99424,
			"target":34962
		},
		{
			"buffer":0,
			"byteLength":45432,
			"byteOffset":144856,
			"target":34962
		},
		{
			"buffer":0,
			"byteLength":30288,
			"byteOffset":190288,
			"target":34962
		},
		{
			"buffer":0,
			"byteLength":29184,
			"byteOffset":220576,
			"target":34963
		},
		{
			"buffer":0,
			"byteLength":37152,
			"byteOffset":249760,
			"target":34962
		},
		{
			"buffer":0,
			"byteLength":37152,
			"byteOffset":286912,
			"target":34962
		},
		{
			"buffer":0,
			"byteLength":24768,
			"byteOffset":324064,
			"target":34962
		},
		{
			"buffer":0,
			"byteLength":32292,
			"byteOffset":348832,
			"target":34963
		},
		{
			"buffer":0,
			"byteLength":4608,
			"byteOffset":381124,
			"target":34962
		},
		{
			"buffer":0,
			"byteLength":4608,
			"byteOffset":385732,
			"target":34962
		},
		{
			"buffer":0,
			"byteLength":3072,
			"byteOffset":390340,
			"target":34962
		},
		{
			"buffer":0,
			"byteLength":1488,
			"byteOffset":393412,
			"target":34963
		},
		{
			"buffer":0,
			"byteLength":1536,
			"byteOffset":394900,
			"target":34962
		},
		{
			"buffer":0,
			"byteLength":1536,
			"byteOffset":396436,
			"target":34962
		},
		{
			"buffer":0,
			"byteLength":1024,
			"byteOffset":397972,
			"target":34962
		},
		{
			"buffer":0,
			"byteLength":768,
			"byteOffset":398996,
			"target":34963
		},
		{
			"buffer":0,
			"byteLength":25764,
			"byteOffset":399764,
			"target":34962
		},
		{
			"buffer":0,
			"byteLength":25764,
			"byteOffset":425528,
			"target":34962
		},
		{
			"buffer":0,
			"byteLength":17176,
			"byteOffset":451292,
			"target":34962
		},
		{
			"buffer":0,
			"byteLength":14682,
			"byteOffset":468468,
			"target":34963
		},
		{
			"buffer":0,
			"byteLength":11196,
			"byteOffset":483152,
			"target":34962
		},
		{
			"buffer":0,
			"byteLength":11196,
			"byteOffset":494348,
			"target":34962
		},
		{
			"buffer":0,
			"byteLength":7464,
			"byteOffset":505544,
			"target":34962
		},
		{
			"buffer":0,
			"byteLength":8766,
			"byteOffset":513008,
			"target":34963
		},
		{
			"buffer":0,
			"byteLength":2820,
			"byteOffset":521776,
			"target":34962
		},
		{
			"buffer":0,
			"byteLength":2820,
			"byteOffset":524596,
			"target":34962
		},
		{
			"buffer":0,
			"byteLength":1880,
			"byteOffset":527416,
			"target":34962
		},
		{
			"buffer":0,
			"byteLength":972,
			"byteOffset":529296,
			"target":34963
		},
		{
			"buffer":0,
			"byteLength":8832,
			"byteOffset":530268,
			"target":34962
		},
		{
			"buffer":0,
			"byteLength":8832,
			"byteOffset":539100,
			"target":34962
		},
		{
			"buffer":0,
			"byteLength":5888,
			"byteOffset":547932,
			"target":34962
		},
		{
			"buffer":0,
			"byteLength":7092,
			"byteOffset":553820,
			"target":34963
		},
		{
			"buffer":0,
			"byteLength":8748,
			"byteOffset":560912,
			"target":34962
		},
		{
			"buffer":0,
			"byteLength":8748,
			"byteOffset":569660,
			"target":34962
		},
		{
			"buffer":0,
			"byteLength":5832,
			"byteOffset":578408,
			"target":34962
		},
		{
			"buffer":0,
			"byteLength":7680,
			"byteOffset":584240,
			"target":34963
		},
		{
			"buffer":0,
			"byteLength":768,
			"byteOffset":591920,
			"target":34962
		},
		{
			"buffer":0,
			"byteLength":768,
			"byteOffset":592688,
			"target":34962
		},
		{
			"buffer":0,
			"byteLength":512,
			"byteOffset":593456,
			"target":34962
		},
		{
			"buffer":0,
			"byteLength":384,
			"byteOffset":593968,
			"target":34963
		},
		{
			"buffer":0,
			"byteLength":81036,
			"byteOffset":594352,
			"target":34962
		},
		{
			"buffer":0,
			"byteLength":81036,
			"byteOffset":675388,
			"target":34962
		},
		{
			"buffer":0,
			"byteLength":54024,
			"byteOffset":756424,
			"target":34962
		},
		{
			"buffer":0,
			"byteLength":51294,
			"byteOffset":810448,
			"target":34963
		},
		{
			"buffer":0,
			"byteLength":1656,
			"byteOffset":861744,
			"target":34962
		},
		{
			"buffer":0,
			"byteLength":1656,
			"byteOffset":863400,
			"target":34962
		},
		{
			"buffer":0,
			"byteLength":1104,
			"byteOffset":865056,
			"target":34962
		},
		{
			"buffer":0,
			"byteLength":816,
			"byteOffset":866160,
			"target":34963
		},
		{
			"buffer":0,
			"byteLength":11112,
			"byteOffset":866976,
			"target":34962
		},
		{
			"buffer":0,
			"byteLength":11112,
			"byteOffset":878088,
			"target":34962
		},
		{
			"buffer":0,
			"byteLength":7408,
			"byteOffset":889200,
			"target":34962
		},
		{
			"buffer":0,
			"byteLength":5736,
			"byteOffset":896608,
			"target":34963
		},
		{
			"buffer":0,
			"byteLength":21456,
			"byteOffset":902344,
			"target":34962
		},
		{
			"buffer":0,
			"byteLength":21456,
			"byteOffset":923800,
			"target":34962
		},
		{
			"buffer":0,
			"byteLength":14304,
			"byteOffset":945256,
			"target":34962
		},
		{
			"buffer":0,
			"byteLength":8442,
			"byteOffset":959560,
			"target":34963
		},
		{
			"buffer":0,
			"byteLength":11028,
			"byteOffset":968004,
			"target":34962
		},
		{
			"buffer":0,
			"byteLength":11028,
			"byteOffset":979032,
			"target":34962
		},
		{
			"buffer":0,
			"byteLength":7352,
			"byteOffset":990060,
			"target":34962
		},
		{
			"buffer":0,
			"byteLength":6480,
			"byteOffset":997412,
			"target":34963
		},
		{
			"buffer":0,
			"byteLength":8412,
			"byteOffset":1003892,
			"target":34962
		},
		{
			"buffer":0,
			"byteLength":8412,
			"byteOffset":1012304,
			"target":34962
		},
		{
			"buffer":0,
			"byteLength":5608,
			"byteOffset":1020716,
			"target":34962
		},
		{
			"buffer":0,
			"byteLength":4056,
			"byteOffset":1026324,
			"target":34963
		},
		{
			"buffer":0,
			"byteLength":1056,
			"byteOffset":1030380,
			"target":34962
		},
		{
			"buffer":0,
			"byteLength":1056,
			"byteOffset":1031436,
			"target":34962
		},
		{
			"buffer":0,
			"byteLength":704,
			"byteOffset":1032492,
			"target":34962
		},
		{
			"buffer":0,
			"byteLength":516,
			"byteOffset":1033196,
			"target":34963
		},
		{
			"buffer":0,
			"byteLength":307242,
			"byteOffset":1033712
		},
		{
			"buffer":0,
			"byteLength":384,
			"byteOffset":1340956,
			"target":34962
		},
		{
			"buffer":0,
			"byteLength":384,
			"byteOffset":1341340,
			"target":34962
		},
		{
			"buffer":0,
			"byteLength":256,
			"byteOffset":1341724,
			"target":34962
		},
		{
			"buffer":0,
			"byteLength":180,
			"byteOffset":1341980,
			"target":34963
		}
	],
	"samplers":[
		{
			"magFilter":9729,
			"minFilter":9987
		}
	],
	"buffers":[
		{
			"byteLength":1342160,
			"uri":"data:application/octet-stream;base64,"
		}
	]
}
